<?xml version="1.0" encoding="UTF-8"?><svg id="Layer_5" xmlns="http://www.w3.org/2000/svg" width="50" height="50" viewBox="0 0 236 232"><defs><style>.cls-1{fill:none;stroke:#ff6800;stroke-miterlimit:10;stroke-width:10px;}</style></defs><path class="cls-1" d="m45.2,79.88l1.72,91.21c.56,2.88,2,8.15,6.01,13.28,5.92,7.57,13.6,9.93,16.32,10.63h106.51c2.14-.34,9.02-1.72,14.57-7.97,4.27-4.81,5.57-10.04,6.01-12.4v-94.76"/><path class="cls-1" d="m198.02,84.23h15.44c5.27.58,9.06-.08,9.49-1.68.41-1.53-2.31-3.62-3.44-4.43-28.66-18.89-57.32-37.78-85.98-56.67-1.3-.87-3.03-1.85-5.16-2.66-2.31-.88-4.4-1.28-6.02-1.48h-6.05"/><path class="cls-1" d="m122.7,17h-6.05c-1.62.19-3.71.6-6.02,1.48-2.13.81-3.86,1.79-5.16,2.66-28.66,18.89-57.32,37.78-85.98,56.67-1.13.8-3.85,2.9-3.44,4.43.43,1.6,4.22,2.26,9.49,1.68h15.44"/><path class="cls-1" d="m94.04,195v-53.47c-.14-1.75-.56-9.68,5.84-15.8,2.53-2.42,5.31-3.78,7.33-4.54,2.83-.96,6.84-2.01,11.74-2.27,7.3-.39,13.13,1.12,16.53,2.27,1.97.5,5.57,1.68,8.9,4.54,5.05,4.33,6.1,9.62,6.36,11.36v57.91"/></svg>