<?xml version="1.0" encoding="UTF-8"?><svg id="Layer_3" xmlns="http://www.w3.org/2000/svg" width="207.97" height="280.18" viewBox="0 0 207.97 280.18"><defs><style>.cls-1{fill:#f7cc75;stroke:#f7cc74;stroke-miterlimit:10;stroke-width:6px;}</style></defs><path class="cls-1" d="m44.53,221.9c-2.48-3.52-6.27-8.78-11.16-15.04-4.92-6.29-4.89-5.83-7.61-9.49-2.75-3.7-8.39-11.68-13.49-22.76-2.65-5.76-4.17-10.19-4.53-11.27-1.61-4.76-3.27-9.69-4.07-16.54-.7-5.92-1.46-12.43,1.14-20.31.73-2.22,2.59-7.11,6.75-12.27,2.39-2.96,8.04-9.77,17.84-12.71,4.21-1.26,7.86-1.42,9.35-1.45,2.46-.04,5.9-.1,9.88,1.25,3.82,1.3,4.88,2.83,9.93,4.43,1.75.56,3.25.89,4.25,1.09.75,1.56,1.5,3.17,2.23,4.83,1.18,2.66,2.24,5.26,3.21,7.78-3.98-1.87-7.21-3.29-9.49-4.25-1.51-.64-2.1-.87-2.76-1.11-3.98-1.44-7.37-1.96-8.56-2.12-1.97-.27-4.93-.65-8.77-.24-1.82.2-3.89.43-6.34,1.4-2.49.98-4.06,2.2-5.92,3.67-2.76,2.19-6.68,5.56-9.53,11.14-4.22,8.25-3.19,16.02-2.64,19.81.54,3.65,1.62,6.65,4,12.58,1.03,2.56,3.57,8.66,7.83,16.41,1.61,2.93,2.85,4.97,4.68,7.99,3.68,6.06,5.58,9.17,8.47,12.74.7.87,1.27,1.53,2.17,2.76,2.39,3.27,3.15,5.12,4.47,7.13,1.1,1.68,2.94,3.98,6.06,6.34-1.14,1.34-2.28,2.67-3.42,4.01-1.33,1.41-2.65,2.82-3.98,4.23Z"/><path class="cls-1" d="m81.21,70.13c-6.2,3.94-10.39,7.94-13.01,10.79-3.51,3.82-4.87,6.3-5.69,8.26-.54,1.28-1.57,3.8-1.72,7.21-.16,3.58.74,6.26,2.04,10.02.67,1.93.78,1.87,2.94,6.94,2.25,5.25,3.38,7.93,4.16,10.52.53,1.76.94,4.03,1.76,8.56,1.1,6.09,1.66,9.13,1.96,12.87.3,3.66.25,6.24.18,10.36-.11,6.2-.17,9.88-1.02,14.49-.78,4.23-1.82,7.13-3.56,11.86-1.61,4.39-3.83,10.44-7.66,17.35-3.22,5.81-8.51,13.94-17.06,22.54-.13.86-.27,1.71-.4,2.57-.12,2.65-.06,6.4.78,10.79.57,2.98,3.66,17.39,16.9,28.53,12.68,10.67,27.17,12.02,37.71,13.01,14.44,1.35,25.7-1.29,31.35-2.67,6.26-1.53,11.97-2.97,18.56-6.9,3.66-2.18,12.6-7.66,17.62-17.76,2.5-5.02,3.74-10.61,4.42-13.69.74-3.33,1.14-6.16,1.36-8.19-3.29-3.81-7.44-9.17-11.38-16.07-2.42-4.24-5.11-8.96-7.17-15.69-2.88-9.43-2.81-16.93-2.68-25.06.19-11.91,2.25-20.69,3-23.67,1.32-5.26,2.41-9.59,5.15-15,1-1.99,6.22-12.03,17.46-20.34,0,0,9.88-7.3,16.97-6.25.26.04.49.08.49.08,2.39.44,3.68,1.32,6.05,2.51,2.44,1.22,3.66,1.83,4.1,1.45.28-.25.14-.79-.47-2.39-1.28-3.36-2.06-5-2.62-5.82-2.75-4.01-9.13-5.57-11.07-6.04-8.23-2.01-17.02-.84-20.49-.35-3.22.45-8.27,1.37-8.99,0-.24-.46.17-.79.39-2.09.26-1.58-.05-2.8-.38-4.1-.91-3.55-3.35-6.54-3.71-6.97-5.59-6.74-14.03-9.51-17.25-10.56-3.54-1.16-6.73-1.74-8.64-2.08-3.7-.66-6.85-.94-9.13-1.06.56-1.57.64-2.91.57-3.93-.25-3.54-2.65-7.16-5.61-9.08-1.87-1.22-2.37-1.28-3.98-2.84-1.38-1.34-2.07-2.52-3.21-4.5-1.76-3.06-2.92-5.91-4.77-10.78,0,0-.02-.05-.02-.06-.29-.76-.54-1.39-.76-1.94-.17-.43-.3-.76-.49-1.24-.63-1.57-1.14-2.83-1.2-2.96-3.81-9.29-4.54-17.93-4.54-17.93-.21-2.48-.51-3.9-1.28-6.72-.55-2.04-.82-3.06-1.25-3.07-1.04-.04-2.08,5.36-2.32,6.62-.89,4.61-.93,8.19-.96,9.9-.23,16.73-.23,10.08-.27,16.26,0,.73-.05,8.47-.52,12.34-.04.29-.22,1.75-.44,3.72-.06.58-.15,1.37-.32,2.94-.04.35-.16,1.52-.2,1.87,0,0-.01.04-.02.07-.91,3.27-4.71,4.2-6.91,6.19-1.27,1.15-2.63,3.21-2.78,7.21Z"/></svg>