<?xml version="1.0" encoding="UTF-8"?><svg id="Layer_2" xmlns="http://www.w3.org/2000/svg" width="50" height="50" viewBox="0 0 234 201.5"><defs><style>.cls-1{fill:none;stroke:#ff6800;stroke-miterlimit:10;stroke-width:10px;}.cls-2{fill:#ff6800;stroke-width:0px;}</style></defs><path class="cls-1" d="m68.51,31.5h110.46c3.3.39,12.28,1.85,20.18,8.58,10.19,8.67,11.2,19.78,11.36,22.3v82.27c-.04,2.24-.5,12.39-9.47,20.63-7.35,6.75-16.05,8.21-18.93,8.58h-113.61c-3.27-.73-12.48-3.21-19.88-11.15-6.36-6.82-8.01-14.03-8.52-17.15V60.84c-.09-1.85-.4-12.29,8.52-20.76,7.78-7.38,17.43-8.39,19.88-8.58Z"/><line class="cls-1" x1="40.47" y1="55.31" x2="209.2" y2="55.31"/><path class="cls-2" d="m168.14,138.73h19.99c.6.04,2.22.21,3.65.96,1.84.97,2.03,2.22,2.06,2.51v9.25c0,.25-.09,1.39-1.71,2.32-1.33.76-2.9.92-3.43.96h-20.56c-.59-.08-2.26-.36-3.6-1.25-1.15-.77-1.45-1.58-1.54-1.93v-9.52c-.02-.21-.07-1.38,1.54-2.33,1.41-.83,3.15-.94,3.6-.96Z"/></svg>