<?xml version="1.0" encoding="UTF-8"?><svg id="Layer_3" xmlns="http://www.w3.org/2000/svg" width="50" height="50" viewBox="0 0 212 201.75"><defs><style>.cls-1{fill:none;stroke:#ff6800;stroke-miterlimit:10;stroke-width:10px;}</style></defs><path class="cls-1" d="m46.34,22.76h110.46c3.3.44,12.28,2.08,20.18,9.63,10.19,9.73,11.2,22.2,11.36,25.03v92.35c-.04,2.52-.5,13.91-9.47,23.16-7.35,7.58-16.05,9.21-18.93,9.63H46.34c-3.27-.82-12.48-3.6-19.88-12.51-6.36-7.65-8.01-15.75-8.52-19.25V55.7c-.09-2.08-.4-13.8,8.52-23.31,7.78-8.29,17.43-9.41,19.88-9.63Z"/><path class="cls-1" d="m20.98,45.95c7.23,9.99,19.11,24,37.02,36.8,17.62,12.6,34.44,19.28,46.13,22.91,11.79-3.97,28.47-11.06,45.87-23.91,16.91-12.49,28.38-25.9,35.61-35.8"/></svg>