<?xml version="1.0" encoding="UTF-8"?><svg id="Layer_3" xmlns="http://www.w3.org/2000/svg" width="50" height="50" viewBox="0 0 220 201.75"><defs><style>.cls-1{fill:none;stroke:#ff6800;stroke-miterlimit:10;stroke-width:10px;}.cls-2{fill:#ff6800;stroke-width:0px;}</style></defs><path class="cls-1" d="m63.13,158.95v-45.64c.03-2.44.53-5.55,2.74-7.59,0,0,1.44-1.33,3.65-1.84,6.96-1.6,76.69-.97,82.17-.92.94.11,2.78.47,4.57,1.84,3,2.29,3.55,5.67,3.65,6.42v47.72"/><path class="cls-2" d="m171.5,81.44h9.47c.28.04,1.05.19,1.73.88.87.89.96,2.04.97,2.3v8.49c0,.23-.04,1.28-.81,2.13-.63.7-1.38.85-1.62.88h-9.74c-.28-.08-1.07-.33-1.7-1.15-.55-.7-.69-1.45-.73-1.77v-8.74c0-.19-.03-1.27.73-2.14.67-.76,1.49-.87,1.7-.88Z"/><path class="cls-1" d="m26.61,84.61c-.05-.85-.3-6.07,3.65-10.09,2.8-2.85,6.12-3.5,7.3-3.67h144.24c1.43.1,5.45.57,9.15,3.67,4.51,3.79,5.38,8.83,5.56,10.09v60.15c.09.84.54,5.53-2.82,9.59-3.8,4.6-9.33,4.6-10.04,4.59h-23.56l-.18,15.6c.09.45.82,4.25-1.83,7.34-1.99,2.33-5.15,3.38-8.22,2.75h-75.23c-.38.1-4.6,1.08-7.86-1.84-2.31-2.07-2.67-4.8-2.74-5.51-.3-5.81-.61-11.62-.91-17.44l-24.65-.92c-.85-.12-6.81-1.03-10.04-6.42-1.93-3.22-1.91-6.41-1.83-7.76v-60.15Z"/><path class="cls-1" d="m61.31,70.85v-37.04c0-.64.05-3.02,1.83-5.17,1.71-2.09,3.92-2.62,4.57-2.75h84.41c.64,0,2.98.06,5.07,1.84,2.47,2.09,2.71,4.98,2.74,5.51v37.63"/></svg>